<svg xmlns="http://www.w3.org/2000/svg" viewBox="0 0 384 512">
  <path fill="black" d="M318.7 268.7c-.3-36.7 16.3-64.4 49.6-84.9-18.7-26.7-45.8-41.5-81.4-44.3-34.1-2.7-71.4 19.9-84.9 19.9-14.1 0-47.4-18.9-73.4-18.4-56.3.9-116.3 41.1-116.3 123.3 0 24.8 4.6 50.4 13.7 76.8 12.2 34.7 56.5 119.6 102.9 118 24.1-.6 41-17 72.1-17 30.4 0 46.9 17 73.4 17 46.7-.7 88.4-82.6 100.1-117.4-63.5-30.2-75.8-110.8-55.8-173.3zM255.2 80.6c26.6-31.2 24.2-60.2 23.9-70.6-23 1.3-49.6 15.4-65.1 34.4-14.1 17.4-25.7 45.3-22.5 72 24.3 1.9 49.1-12.4 63.7-35.8z"/>
</svg>
