<svg xmlns="http://www.w3.org/2000/svg" viewBox="0 0 488 512">
  <path fill="#4285F4" d="M488 261.8c0-17.4-1.6-34.1-4.7-50.4H249v95.4h135.6c-5.8 31.2-23.2 57.7-49.4 75.3v62.7h79.9c46.7-43 73.9-106.3 73.9-183z"/>
  <path fill="#34A853" d="M249 512c67.4 0 124-22.4 165.3-60.6l-79.9-62.7c-22.2 15-50.5 23.7-85.4 23.7-65.5 0-121-44.2-140.8-103.7H25.9v65.4C67.3 466.6 152.8 512 249 512z"/>
  <path fill="#FBBC05" d="M108.2 308.6c-4.8-15-7.6-31.1-7.6-47.6s2.7-32.6 7.6-47.6V147.9H25.9C9.3 183.9 0 224 0 265s9.3 81.1 25.9 117.1l82.3-73.5z"/>
  <path fill="#EA4335" d="M249 103.3c36.7 0 69.5 12.6 95.4 37.2l71.5-71.5C373 24.4 316.4 0 249 0 152.8 0 67.3 45.4 25.9 117.9l82.3 73.5c19.8-59.5 75.3-103.7 140.8-103.7z"/>
</svg>
